<svg width="16" height="16" viewBox="0 0 16 16" fill="none" xmlns="http://www.w3.org/2000/svg">
<path d="M14.3285 11.6127C14.2538 11.5556 14.1766 11.4966 14.1043 11.4384C13.7208 11.1297 13.3128 10.8453 12.9182 10.5701C12.8364 10.5131 12.7545 10.456 12.6729 10.3988C12.1674 10.0437 11.713 9.8712 11.2837 9.8712C10.7055 9.8712 10.2013 10.1907 9.78523 10.8207C9.60088 11.1 9.37723 11.2358 9.1016 11.2358C8.93862 11.2358 8.75342 11.1893 8.55124 11.0975C6.91979 10.3577 5.75482 9.2234 5.08863 7.72611C4.76659 7.00243 4.87099 6.52939 5.43775 6.14439C5.75959 5.92596 6.35864 5.5193 6.31621 4.74057C6.26816 3.85624 4.31695 1.19542 3.49484 0.893213C3.14677 0.765213 2.78105 0.76402 2.4059 0.890232C1.4608 1.20795 0.782593 1.76591 0.444407 2.5037C0.117599 3.21659 0.132357 4.05366 0.48709 4.92442C1.51258 7.44198 2.95437 9.63696 4.77256 11.4483C6.55223 13.2214 8.73961 14.6738 11.2739 15.7651C11.5023 15.8633 11.7419 15.917 11.9169 15.9561C11.9765 15.9695 12.028 15.9809 12.0655 15.9912C12.0861 15.9968 12.1074 15.9998 12.1287 16L12.1487 16.0001C12.1488 16.0001 12.1487 16.0001 12.1488 16.0001C13.3408 16.0001 14.772 14.911 15.2115 13.6692C15.5966 12.5819 14.8935 12.0445 14.3285 11.6127Z" fill="black"/>
</svg>
